<?xml version="1.0" encoding="utf-8"?>
<!-- Generator: Adobe Illustrator 24.3.0, SVG Export Plug-In . SVG Version: 6.00 Build 0)  -->
<svg version="1.1" id="Layer_1" xmlns="http://www.w3.org/2000/svg" xmlns:xlink="http://www.w3.org/1999/xlink" x="0px" y="0px"
	 viewBox="0 0 200 113" style="enable-background:new 0 0 200 113;" xml:space="preserve">
<style type="text/css">
	.st0{fill:#01B3C8;}
	.st1{fill:#4D4D4F;}
	.st2{fill:#A7A6A6;}
</style>
<g>
	<path class="st0" d="M74.9,6c0.3,4.3,2.3,6.6,6.3,6.6c2-1.7,2.8-1.9,4.2-4.6c0.4-1.5,0.4-3,0.4-4.6c-1.5-1.9-3.3-3.3-5-3.4
		C78.3,1,75.7,3.8,74.9,6z"/>
	<path class="st0" d="M69.4,86.3c-4.7,2.1-15.4,9.1,0,4.8c80.6-22.8,102.4-4.4,102.4-4.4s9.3,3.7,4.5,0
		C146.2,63.8,74.1,84.2,69.4,86.3z"/>
</g>
<g>
	<path class="st1" d="M57.8,78.2c5.8-12.8,9.9-25.9,16-42.5c1.1-3,2-5.3,3-6.6c-0.6-1.1-2-2.8-3.6-2.8c-1.5,0-4.8,1.7-7,2.8
		c0,1.8-0.1,3.8-0.6,5.6c-6.7,22.5-9.4,30.9-14.4,41.7c-7.5,16.8-14.5,25.7-22.1,29.5c1.1,1.4,2.3,2.3,3.8,2.4
		C42.7,104.5,49.6,95.8,57.8,78.2z"/>
	<path class="st1" d="M164.5,44.4c-0.3,0.3-1.4,0.1-1-0.6c1.7-5.2,1.2-5.5,1.2-7.9c0-2.2,0-3.3-0.6-5.2c-4.4-0.1-7,1.7-9,4.7
		c0.6,1.1,1.3,3.7,1.3,7.2c-0.1,4.7-3.4,13.3-8.3,24.8c1,0.8,2.5,1.5,4.2,1.7c1.5-0.6,3.8-1.5,4.8-2.4c1.5-3.8,4.3-8.8,5.1-10
		c10.2-16.5,25.7-29.3,28.4-30.2c1.1,1.4,2.4,2.2,3.4,2.5c1.3,0,3.6-1,5-2c0.8-1.4,1.1-4.3,1.1-5.7c-1.5-1.4-4.1-2.5-5.7-3
		C190.7,18.2,174.9,30.9,164.5,44.4z"/>
	<path class="st1" d="M78.5,69.1c11.4,0,28.6-21.2,28.6-36.6c0-4.6-1.8-6.6-3.9-7.4c-1.5,0-4.7,1.8-7,4.1C94.6,27.7,93,27,91.5,27
		c-5.8,3.7-20.1,19.2-20.1,32.9C71.4,65.4,73.9,69.1,78.5,69.1z M94.6,30.2c2.7,0.8,4.6,3.2,4.6,6.9c0,9.9-9.5,24.3-14.6,24.3
		c-2.8,0-4.6-0.9-4.6-6.1C80,47.1,86.6,35.4,94.6,30.2z"/>
	<path class="st1" d="M50.9,6c-0.6,1.8-1.3,5.3-1.9,7.6c-0.6,0.1-1.8,0.4-2.3,0.9C34.5,26.7,25.6,36,16.7,46.4
		c-1.8,0-3.8,0.1-5.5,0.3c-1.6,1-2.9,1.9-4,3.2c0.1,1,0.6,1.8,0.9,2.3c1.2,0.3,2.5,0.3,3.9,0.4C7.9,57.3,3,65.1,0,69
		c-0.2,1.7,0.7,2.1,1.7,3.1c1.5,0,4.1-0.6,5.5-1.9c2.5-4.2,7.6-11.4,12.5-17.8c8.3-0.4,17.7-1.7,25.1-3.6c-0.4,6.6-0.6,7.2-0.3,10
		c-0.5,6.5,3.5,4.2,5,4.4c1.8-0.6,3.8-1.4,4.7-2.2c-0.8-8.5-0.9-12.1,1.1-31.3C57,17.4,58.6,8.9,60.1,2.9c-0.7-0.5-1.7-1-2.9-1.4
		C55,2.4,52.6,4.6,50.9,6z M45.1,45.6c-2.2,0.4-13.9,0.6-21,0.8c6.9-8.6,17.5-20.3,23.1-25.1c0.3-0.3,0.8-0.1,0.7,0.3
		C46.8,29.3,45.8,38.5,45.1,45.6z"/>
	<path class="st1" d="M141.2,58.7c-0.8,0-1.1-0.9-1.1-2.3c-0.1-3.9,3.6-16.5,8.8-26.3c-0.4-0.8-1.9-2-2.8-2.4
		c-1.5,0-4.7,1.3-6.9,2.8c-11.4,17.9-21.3,26.7-24.1,26.7c-0.9,0-1.1-1.3-1.1-2.4c0-5,2.4-12.1,9-23.5c-0.5-0.9-1.4-1.8-2.2-2.4
		c-1.9,0.5-3.6,0.9-5.7,2.2c-5,9.7-10.7,23.5-10.7,31.1c0,3.2,1.5,4.8,3.7,4.8c4.4,0,13.5-6.7,26-21.5c0.3-0.1,1.4-0.3,1.1,0.5
		c-2,5.6-3.7,11.9-3.7,16.3c0,3.6,1.5,4.8,3,4.8c3.8,0,12.2-5.5,16.1-9.3c0-1.5-0.3-2.5-0.9-3.7C146.1,57,143.2,58.7,141.2,58.7z"/>
</g>
<g>
	<path class="st2" d="M85.1,102.3l0.8-1c0.7,0.8,1.8,1.5,3.2,1.5c1.8,0,2.4-1,2.4-1.8c0-2.6-6.1-1.2-6.1-4.8c0-1.7,1.5-2.9,3.5-2.9
		c1.6,0,2.8,0.5,3.6,1.4l-0.8,0.9c-0.8-0.9-1.8-1.2-3-1.2s-2.1,0.7-2.1,1.6c0,2.3,6.1,1,6.1,4.8c0,1.5-1,3-3.8,3
		C87.3,103.9,86,103.3,85.1,102.3z"/>
	<path class="st2" d="M101,103.8v-4.3l-4-5.9h1.5l3.2,4.8l3.2-4.8h1.5l-4,5.9v4.3H101z"/>
	<path class="st2" d="M110.1,102.3l0.8-1c0.7,0.8,1.8,1.5,3.2,1.5c1.8,0,2.4-1,2.4-1.8c0-2.6-6.1-1.2-6.1-4.8c0-1.7,1.5-2.9,3.5-2.9
		c1.6,0,2.8,0.5,3.6,1.4l-0.8,0.9c-0.8-0.9-1.8-1.2-3-1.2s-2.1,0.7-2.1,1.6c0,2.3,6.1,1,6.1,4.8c0,1.5-1,3-3.8,3
		C112.3,103.9,110.9,103.3,110.1,102.3z"/>
	<path class="st2" d="M125.5,103.8v-9.1h-3.2v-1.1h7.8v1.1h-3.3v9.1H125.5z"/>
	<path class="st2" d="M135.2,103.8V93.5h6.7v1.1h-5.4v3.3h5.3V99h-5.3v3.5h5.4v1.1h-6.7V103.8z"/>
	<path class="st2" d="M156.1,103.8v-8.6l-3.5,8.6h-0.5l-3.5-8.6v8.6h-1.3V93.5h1.8l3.2,7.9l3.2-7.9h1.8v10.3H156.1z"/>
</g>
</svg>
